<?xml version="1.0" encoding="UTF-8" standalone="no"?>
<!-- Created with Inkscape (http://www.inkscape.org/) -->

<svg
   width="24in"
   height="12in"
   viewBox="0 0 609.6 304.8"
   version="1.1"
   id="svg1"
   inkscape:version="1.4.2 (f4327f4, 2025-05-13)"
   sodipodi:docname="pump-housing.svg"
   xmlns:inkscape="http://www.inkscape.org/namespaces/inkscape"
   xmlns:sodipodi="http://sodipodi.sourceforge.net/DTD/sodipodi-0.dtd"
   xmlns="http://www.w3.org/2000/svg"
   xmlns:svg="http://www.w3.org/2000/svg">
  <sodipodi:namedview
     id="namedview1"
     pagecolor="#ffffff"
     bordercolor="#666666"
     borderopacity="1.0"
     inkscape:showpageshadow="2"
     inkscape:pageopacity="0.0"
     inkscape:pagecheckerboard="0"
     inkscape:deskcolor="#d1d1d1"
     inkscape:document-units="mm"
     inkscape:zoom="0.23527818"
     inkscape:cx="1247.4595"
     inkscape:cy="393.15163"
     inkscape:window-width="1920"
     inkscape:window-height="986"
     inkscape:window-x="2389"
     inkscape:window-y="-11"
     inkscape:window-maximized="1"
     inkscape:current-layer="layer1"
     showguides="false" />
  <defs
     id="defs1" />
  <g
     inkscape:label="Layer 1"
     inkscape:groupmode="layer"
     id="layer1"
     style="display:inline">
    <circle
       style="fill:none;stroke:#000000;stroke-width:0.597237;stroke-dasharray:none"
       id="path2"
       cx="394.08191"
       cy="29.095507"
       r="4.7013817" />
    <circle
       style="fill:none;stroke:#000000;stroke-width:0.597237;stroke-dasharray:none"
       id="circle2"
       cx="447.35901"
       cy="29.095507"
       r="4.7013817" />
    <circle
       style="fill:none;stroke:#000000;stroke-width:0.895856;stroke-dasharray:none"
       id="circle3"
       cx="515.85901"
       cy="28.017193"
       r="7.052072" />
    <rect
       style="fill:none;stroke:#000000;stroke-width:1;stroke-dasharray:none"
       id="rect3"
       width="23.06024"
       height="13.120481"
       x="557.81927"
       y="22.662649" />
  </g>
  <g
     id="g52"
     inkscape:label="box1"
     style="display:inline">
    <g
       id="panel890">
      <path
         style="fill:none;stroke:#000000;stroke-width:1"
         d="m 359.8,4 h 14.59 V 1 h 12.1 v 3 h 14.54 V 1 h 12.1 v 3 h 14.54 V 1 h 12.1 v 3 h 14.54 V 1 h 12.1 V 4 H 481"
         id="path29" />
    </g>
    <g
       id="panel9559">
      <path
         style="fill:none;stroke:#000000;stroke-width:1"
         d="m 481,4 v 19.15 h -3 v 11.9 h 3 V 54.2"
         id="path30" />
    </g>
    <g
       id="panel4973">
      <path
         style="fill:none;stroke:#000000;stroke-width:1"
         d="m 481,54.2 h -14.59 v 3 h -12.1 v -3 h -14.54 v 3 h -12.1 v -3 h -14.54 v 3 h -12.1 v -3 h -14.54 v 3 h -12.1 v -3 H 359.8"
         id="path31" />
    </g>
    <g
       id="panel3831">
      <path
         style="fill:none;stroke:#000000;stroke-width:1"
         d="M 359.8,54.2 V 35.05 h 3 v -11.9 h -3 V 4"
         id="path32" />
    </g>
    <g
       id="panel9395">
      <path
         style="fill:none;stroke:#000000;stroke-width:1"
         d="m 248.4,4 h 19.05 V 1 h 12.1 v 3 h 19.05"
         id="path33" />
    </g>
    <g
       id="panel2623">
      <path
         style="fill:none;stroke:#000000;stroke-width:1"
         d="m 298.6,4 v 10.75 h 3 v 12.1 h -3 v 13.7 h 3 v 12.1 h -3 v 13.7 h 3 v 12.1 h -3 V 89.2"
         id="path34" />
    </g>
    <g
       id="panel2910">
      <path
         style="fill:none;stroke:#000000;stroke-width:1"
         d="m 298.6,89.2 h -19.05 v 3 h -12.1 v -3 H 248.4"
         id="path35" />
    </g>
    <g
       id="panel4036">
      <path
         style="fill:none;stroke:#000000;stroke-width:1"
         d="M 248.4,89.2 V 78.45 h -3 v -12.1 h 3 v -13.7 h -3 v -12.1 h 3 v -13.7 h -3 v -12.1 h 3 V 4"
         id="path36" />
    </g>
    <g
       id="panel8395">
      <path
         style="fill:none;stroke:#000000;stroke-width:1"
         d="m 1,1 h 14.69 v 3 h 11.9 V 1 h 14.74 v 3 h 11.9 V 1 h 14.74 v 3 h 11.9 V 1 h 14.74 v 3 h 11.9 V 1 h 14.69"
         id="path37" />
    </g>
    <g
       id="panel5668">
      <path
         style="fill:none;stroke:#000000;stroke-width:1"
         d="m 122.2,1 v 13.85 h -3 v 11.9 h 3 v 13.9 h -3 v 11.9 h 3 v 13.9 h -3 v 11.9 h 3 V 92.2"
         id="path38" />
    </g>
    <g
       id="panel2674">
      <path
         style="fill:none;stroke:#000000;stroke-width:1"
         d="m 122.2,92.2 h -14.69 v -3 h -11.9 v 3 H 80.87 v -3 h -11.9 v 3 H 54.23 v -3 h -11.9 v 3 H 27.59 v -3 h -11.9 v 3 H 1"
         id="path39" />
    </g>
    <g
       id="panel8730">
      <path
         style="fill:none;stroke:#000000;stroke-width:1"
         d="M 1,92.2 V 78.35 H 4 V 66.45 H 1 V 52.55 H 4 V 40.65 H 1 V 26.75 H 4 V 14.85 H 1 V 1"
         id="path40" />
    </g>
    <g
       id="panel7447">
      <path
         style="fill:none;stroke:#000000;stroke-width:1"
         d="m 123.2,1 h 14.69 v 3 h 11.9 V 1 h 14.74 v 3 h 11.9 V 1 h 14.74 v 3 h 11.9 V 1 h 14.74 v 3 h 11.9 V 1 h 14.69"
         id="path41" />
    </g>
    <g
       id="panel7378">
      <path
         style="fill:none;stroke:#000000;stroke-width:1"
         d="m 244.4,1 v 13.85 h -3 v 11.9 h 3 v 13.9 h -3 v 11.9 h 3 v 13.9 h -3 v 11.9 h 3 V 92.2"
         id="path42" />
    </g>
    <g
       id="panel450">
      <path
         style="fill:none;stroke:#000000;stroke-width:1"
         d="m 244.4,92.2 h -14.69 v -3 h -11.9 v 3 h -14.74 v -3 h -11.9 v 3 h -14.74 v -3 h -11.9 v 3 h -14.74 v -3 h -11.9 v 3 H 123.2"
         id="path43" />
    </g>
    <g
       id="panel561">
      <path
         style="fill:none;stroke:#000000;stroke-width:1"
         d="M 123.2,92.2 V 78.35 h 3 v -11.9 h -3 v -13.9 h 3 v -11.9 h -3 v -13.9 h 3 v -11.9 h -3 V 1"
         id="path44" />
    </g>
    <g
       id="panel3321">
      <path
         style="fill:none;stroke:#000000;stroke-width:1"
         d="m 305.6,4 h 19.05 V 1 h 12.1 v 3 h 19.05"
         id="path45" />
    </g>
    <g
       id="panel3316">
      <path
         style="fill:none;stroke:#000000;stroke-width:1"
         d="m 355.8,4 v 10.75 h 3 v 12.1 h -3 v 13.7 h 3 v 12.1 h -3 v 13.7 h 3 v 12.1 h -3 V 89.2"
         id="path46" />
    </g>
    <g
       id="panel9487">
      <path
         style="fill:none;stroke:#000000;stroke-width:1"
         d="m 355.8,89.2 h -19.05 v 3 h -12.1 v -3 H 305.6"
         id="path47" />
    </g>
    <g
       id="panel4194">
      <path
         style="fill:none;stroke:#000000;stroke-width:1"
         d="M 305.6,89.2 V 78.45 h -3 v -12.1 h 3 v -13.7 h -3 v -12.1 h 3 v -13.7 h -3 v -12.1 h 3 V 4"
         id="path48" />
    </g>
    <g
       id="panel5744">
      <path
         style="fill:none;stroke:#000000;stroke-width:1"
         d="m 482,4 h 14.59 V 1 h 12.1 v 3 h 14.54 V 1 h 12.1 v 3 h 14.54 V 1 h 12.1 v 3 h 14.54 V 1 h 12.1 v 3 h 14.59"
         id="path49" />
    </g>
    <g
       id="panel5404">
      <path
         style="fill:none;stroke:#000000;stroke-width:1"
         d="m 603.2,4 v 19.15 h -3 v 11.9 h 3 V 54.2"
         id="path50" />
    </g>
    <g
       id="panel8585">
      <path
         style="fill:none;stroke:#000000;stroke-width:1"
         d="m 603.2,54.2 h -14.59 v 3 h -12.1 v -3 h -14.54 v 3 h -12.1 v -3 h -14.54 v 3 h -12.1 v -3 h -14.54 v 3 h -12.1 v -3 H 482"
         id="path51" />
    </g>
    <g
       id="panel5338">
      <path
         style="fill:none;stroke:#000000;stroke-width:1"
         d="M 482,54.2 V 35.05 h 3 v -11.9 h -3 V 4"
         id="path52" />
    </g>
  </g>
</svg>
